<?xml version="1.0" encoding="utf-8"?>
<!-- Generator: Adobe Illustrator 16.0.0, SVG Export Plug-In . SVG Version: 6.00 Build 0)  -->
<!DOCTYPE svg PUBLIC "-//W3C//DTD SVG 1.1//EN" "http://www.w3.org/Graphics/SVG/1.1/DTD/svg11.dtd">
<svg version="1.1" id="图层_3" xmlns="http://www.w3.org/2000/svg" xmlns:xlink="http://www.w3.org/1999/xlink" x="0px" y="0px"
	 width="192px" height="192px" viewBox="0 0 192 192" enable-background="new 0 0 192 192" xml:space="preserve">
<path fill="#34A853" d="M8.083,43.377v104.75c0,6.217,5.034,11.25,11.25,11.25h153.25c6.215,0,11.25-5.033,11.25-11.25V43.377
	c0-6.215-5.035-11.25-11.25-11.25H19.333C13.117,32.127,8.083,37.163,8.083,43.377z"/>
<g>
	<polygon fill="#FFFFFF" points="104.093,124.154 87.895,124.154 87.895,96.41 75.745,111.98 63.6,96.41 63.6,124.154 
		47.403,124.154 47.403,68.665 63.6,68.665 75.745,88.311 87.895,68.665 104.093,68.665 104.093,124.154 	"/>
	<polygon fill="#FFFFFF" points="128.271,124.154 108.146,96.41 120.283,96.41 120.283,68.665 136.479,68.665 136.479,96.41 
		148.627,96.41 128.266,124.154 	"/>
</g>
</svg>
